HIERARCHY
ROOT Hips
{
 OFFSET 0.000000 0.000000 0.000000
 CHANNELS 6 Xposition Yposition Zposition Yrotation Xrotation Zrotation
 JOINT Chest
 {
  OFFSET 0.000000 10.354800 0.006500
  CHANNELS 3 Yrotation Xrotation Zrotation
  JOINT Chest2
  {
   OFFSET 0.000000 10.435800 -0.013200
   CHANNELS 3 Yrotation Xrotation Zrotation
   JOINT Chest3
   {
    OFFSET 0.000000 10.393700 0.000000
    CHANNELS 3 Yrotation Xrotation Zrotation
    JOINT Chest4
    {
     OFFSET 0.000000 10.383100 0.000000
     CHANNELS 3 Yrotation Xrotation Zrotation
     JOINT Neck
     {
      OFFSET 0.000000 15.694000 0.000000
      CHANNELS 3 Yrotation Xrotation Zrotation
      JOINT Head
      {
       OFFSET 0.000000 9.711000 -0.028000
       CHANNELS 3 Yrotation Xrotation Zrotation
       End Site
       {
        OFFSET 0.000000 18.578700 -0.014800
       }
      }
     }
     JOINT RightCollar
     {
      OFFSET -3.157200 10.367500 0.000000
      CHANNELS 3 Yrotation Xrotation Zrotation
      JOINT RightShoulder
      {
       OFFSET -14.482500 0.000000 0.000000
       CHANNELS 3 Yrotation Xrotation Zrotation
       JOINT RightElbow
       {
        OFFSET 0.000000 -31.707800 0.000000
        CHANNELS 3 Yrotation Xrotation Zrotation
        JOINT RightWrist
        {
         OFFSET 0.000000 -25.659300 0.000000
         CHANNELS 3 Yrotation Xrotation Zrotation
         End Site
         {
          OFFSET 0.000000 -18.994300 0.000000
         }
        }
       }
      }
     }
     JOINT LeftCollar
     {
      OFFSET 3.157200 10.367500 0.000000
      CHANNELS 3 Yrotation Xrotation Zrotation
      JOINT LeftShoulder
      {
       OFFSET 14.482500 0.000000 0.000000
       CHANNELS 3 Yrotation Xrotation Zrotation
       JOINT LeftElbow
       {
        OFFSET 0.000000 -31.707800 0.000000
        CHANNELS 3 Yrotation Xrotation Zrotation
        JOINT LeftWrist
        {
         OFFSET 0.000000 -25.659300 0.000000
         CHANNELS 3 Yrotation Xrotation Zrotation
         End Site
         {
          OFFSET 0.000000 -18.994300 0.000000
         }
        }
       }
      }
     }
    }
   }
  }
 }
 JOINT RightHip
 {
  OFFSET -8.365600 -0.032100 -0.003200
  CHANNELS 3 Yrotation Xrotation Zrotation
  JOINT RightKnee
  {
   OFFSET 0.000000 -43.980000 0.003100
   CHANNELS 3 Yrotation Xrotation Zrotation
   JOINT RightAnkle
   {
    OFFSET 0.000000 -42.882800 0.005200
    CHANNELS 3 Yrotation Xrotation Zrotation
    JOINT RightToe
    {
     OFFSET 0.000000 -4.915500 10.826300
     CHANNELS 3 Yrotation Xrotation Zrotation
     End Site
     {
      OFFSET 0.000000 -1.517500 6.175900
     }
    }
   }
  }
 }
 JOINT LeftHip
 {
  OFFSET 8.365600 -0.032100 -0.003200
  CHANNELS 3 Yrotation Xrotation Zrotation
  JOINT LeftKnee
  {
   OFFSET 0.000000 -43.980000 0.003100
   CHANNELS 3 Yrotation Xrotation Zrotation
   JOINT LeftAnkle
   {
    OFFSET 0.000000 -42.882800 0.005200
    CHANNELS 3 Yrotation Xrotation Zrotation
    JOINT LeftToe
    {
     OFFSET 0.000000 -4.915500 10.826300
     CHANNELS 3 Yrotation Xrotation Zrotation
     End Site
     {
      OFFSET 0.000000 -1.517500 6.175900
     }
    }
   }
  }
 }
}
MOTION
Frames: 15
Frame Time: 0.008333
0.000000 91.618600 0.000000 0.000000 -5.767877 0.000000 0.000000 11.653817 0.000000 0.000000 -5.885947 0.000000 0.000000 -0.000000 0.000000 0.000000 -0.000000 0.000000 0.000000 12.528835 0.000000 0.000000 0.711642 0.000000 0.000000 -0.000000 0.000000 0.000000 0.000000 -90.000000 0.000000 -2.309062 0.000000 0.000000 2.309062 0.000000 0.000000 -0.000000 0.000000 0.000000 -0.000000 90.000000 0.000000 -2.309062 0.000000 0.000000 2.309062 0.000000 0.000000 8.520406 0.000000 0.000000 1.905762 0.000000 -0.000000 -4.658285 0.000000 0.000000 -0.000000 0.000000 0.000000 8.520406 0.000000 0.000000 1.905762 0.000000 -0.000000 -4.658285 0.000000 0.000000 -0.000000 0.000000
-13.386795 147.212541 28.302514 176.700788 -19.910019 -2.234574 -0.914006 11.940992 2.779332 -0.094311 0.887125 0.219679 -0.147019 1.515349 0.373087 -0.875210 10.884301 2.618054 -3.195076 21.212166 0.602400 -3.568424 -3.088321 1.388016 3.168562 4.389490 -3.952203 14.334751 -14.012308 -5.606028 44.874381 -43.074085 -35.608562 -8.030419 -3.408966 -29.839361 -4.196065 7.854245 0.201764 -8.154598 -18.611811 -0.753599 -46.461902 -43.445542 41.659349 -5.658108 -2.906313 19.540892 9.968976 -58.503795 -10.343163 -141.723805 77.153154 -135.359714 -0.822890 -20.580092 2.395963 -0.003189 -0.084749 -0.001610 -14.005428 -60.289176 9.018632 115.555538 80.015609 113.635555 -2.908623 -15.398224 -2.173047 0.024963 0.071983 0.013848
-11.222730 140.654282 28.779380 176.714458 -19.917725 -2.263693 -0.917814 11.948106 2.804067 -0.093371 0.888558 0.220322 -0.147420 1.516427 0.372524 -0.874997 10.885795 2.618456 -3.194871 21.216951 0.597554 -3.569271 -3.088752 1.385174 3.160440 4.382498 -3.951217 14.343467 -14.006616 -5.608383 44.878146 -43.074651 -35.613558 -8.034841 -3.407318 -29.836656 -4.198197 7.849944 0.200746 -8.158988 -18.610586 -0.756290 -46.454339 -43.440769 41.669476 -5.666153 -2.912817 19.536204 9.916150 -58.506987 -10.296756 -141.754165 77.145274 -135.392273 -0.825822 -20.609389 2.398429 -0.001434 -0.059126 -0.000649 -14.047698 -60.269887 9.058933 115.509051 80.018830 113.592101 -2.906257 -15.375474 -2.171556 0.018962 0.051407 0.008615
-9.437826 135.253521 29.173193 176.729723 -19.924008 -2.303794 -0.925277 11.953440 2.838592 -0.086856 0.889724 0.219541 -0.153537 1.518430 0.373343 -0.869515 10.888164 2.618356 -3.198241 21.221657 0.593246 -3.565622 -3.081976 1.374104 3.162337 4.381748 -3.953941 14.339161 -14.009540 -5.605955 44.883388 -43.064244 -35.617254 -8.045233 -3.412655 -29.832888 -4.197543 7.844378 0.198566 -8.167815 -18.610271 -0.753757 -46.447387 -43.441201 41.668941 -5.661048 -2.929176 19.519333 9.845745 -58.512677 -10.230760 -141.782937 77.139515 -135.423623 -0.830082 -20.650521 2.402196 -0.002279 -0.022298 -0.001034 -14.107684 -60.252950 9.112448 115.497545 80.019643 113.585327 -2.881238 -15.341431 -2.171517 0.005014 0.020283 0.002277
-8.152050 131.352935 29.458708 176.736441 -19.928672 -2.312138 -0.936545 11.956003 2.842215 -0.080146 0.892333 0.220598 -0.156080 1.518977 0.372991 -0.871592 10.904389 2.611939 -3.193493 21.213144 0.593345 -3.562668 -3.087048 1.378423 3.170076 4.366220 -3.949235 14.346622 -14.007694 -5.613481 44.884869 -43.061269 -35.629094 -8.052579 -3.409197 -29.818430 -4.188498 7.825154 0.202620 -8.171518 -18.606205 -0.753398 -46.441350 -43.445327 41.667937 -5.664504 -2.933571 19.514307 9.829638 -58.514202 -10.219382 -141.832596 77.140956 -135.473869 -0.841751 -20.667492 2.403069 -0.001577 -0.014408 -0.000716 -14.120134 -60.248652 9.116418 115.466940 80.016623 113.556748 -2.882858 -15.324456 -2.170621 0.000456 0.011488 0.000207
-7.339516 128.890624 29.638131 176.720434 -19.948901 -2.311091 -0.923976 11.974392 2.844800 -0.086746 0.891901 0.220010 -0.150423 1.520958 0.373480 -0.869138 10.907988 2.610559 -3.192551 21.217436 0.585815 -3.559631 -3.087656 1.376999 3.176916 4.367483 -3.947493 14.352768 -14.005593 -5.627479 44.893072 -43.067259 -35.633625 -8.059280 -3.396659 -29.813258 -4.185330 7.824045 0.198916 -8.168360 -18.603936 -0.750841 -46.438671 -43.452224 41.668635 -5.668530 -2.938579 19.509654 9.826068 -58.501485 -10.202764 -141.869414 77.140816 -135.515521 -0.842337 -20.675705 2.402301 -0.003639 -0.009699 -0.001652 -14.102187 -60.229358 9.113709 115.448979 80.015621 113.539733 -2.880034 -15.310634 -2.173801 -0.000290 0.003897 -0.000132
-6.892735 127.536709 29.739330 176.717575 -19.960511 -2.310279 -0.923466 11.984645 2.843360 -0.088437 0.891453 0.219015 -0.151367 1.522927 0.373496 -0.866119 10.911243 2.610277 -3.189125 21.220748 0.579489 -3.559979 -3.086232 1.370262 3.183092 4.371376 -3.944497 14.347776 -14.007999 -5.634765 44.901499 -43.072779 -35.638078 -8.057690 -3.384915 -29.802611 -4.177148 7.821076 0.195998 -8.160979 -18.598907 -0.749496 -46.446664 -43.459436 41.668892 -5.644193 -2.947153 19.510230 9.820324 -58.495260 -10.197780 -141.884402 77.140301 -135.529968 -0.839673 -20.678311 2.397058 -0.004108 -0.007476 -0.001865 -14.088263 -60.219144 9.101975 115.431996 80.018609 113.526511 -2.878126 -15.301126 -2.177698 -0.000610 0.001061 -0.000277
-6.679938 126.892872 29.790236 176.717788 -19.972045 -2.308288 -0.921322 11.991915 2.842095 -0.089140 0.894833 0.218866 -0.151674 1.525917 0.372336 -0.861335 10.919926 2.606685 -3.191596 21.212184 0.583303 -3.557362 -3.081654 1.355445 3.181139 4.368624 -3.935761 14.343705 -14.012894 -5.642758 44.906409 -43.076038 -35.640838 -8.056787 -3.377605 -29.789609 -4.182204 7.815338 0.197657 -8.134728 -18.587941 -0.753756 -46.481632 -43.470176 41.683575 -5.630225 -2.946461 19.517027 9.815647 -58.487607 -10.195201 -141.901277 77.134192 -135.544659 -0.834855 -20.683557 2.391176 -0.004952 -0.006468 -0.002248 -14.068500 -60.209126 9.081597 115.415570 80.020596 113.515722 -2.877876 -15.295517 -2.181936 -0.000377 0.000777 -0.000171
-6.592382 126.630711 29.815161 176.719406 -19.984083 -2.307928 -0.919172 11.998859 2.842413 -0.091295 0.899110 0.218375 -0.149006 1.530111 0.373041 -0.865450 10.928460 2.602362 -3.188755 21.209009 0.577417 -3.542214 -3.086067 1.328107 3.186366 4.366667 -3.926916 14.339359 -14.018325 -5.654216 44.912995 -43.078850 -35.644122 -8.080512 -3.373566 -29.770574 -4.180074 7.810003 0.191999 -8.121478 -18.581172 -0.749098 -46.491263 -43.487074 41.689492 -5.637138 -2.945339 19.518092 9.808154 -58.477011 -10.187395 -141.883352 77.128429 -135.522060 -0.827687 -20.686485 2.385700 -0.006218 -0.005259 -0.002823 -14.049327 -60.197997 9.061851 115.370707 80.019125 113.479204 -2.882592 -15.289971 -2.188081 0.002668 0.001596 0.001211
-6.561446 126.542059 29.827347 176.728649 -20.011745 -2.309432 -0.925309 12.023416 2.841067 -0.090653 0.901105 0.217983 -0.150502 1.531146 0.373492 -0.866034 10.944055 2.596483 -3.182295 21.208665 0.563344 -3.538832 -3.101354 1.335085 3.191217 4.359329 -3.916155 14.331623 -14.015052 -5.670874 44.915338 -43.088268 -35.639844 -8.096547 -3.377294 -29.760071 -4.176717 7.806600 0.192745 -8.112749 -18.580349 -0.748902 -46.480824 -43.506112 41.692139 -5.656900 -2.949144 19.514486 9.793103 -58.447610 -10.175844 -141.852277 77.125485 -135.482698 -0.822412 -20.684538 2.379820 -0.008985 -0.004663 -0.004079 -14.034967 -60.170957 9.037412 115.338087 80.011740 113.452926 -2.889835 -15.287315 -2.198626 0.008206 0.002089 0.003726
-6.552864 126.520656 29.832897 176.734479 -20.069851 -2.303006 -0.929506 12.077354 2.832448 -0.091303 0.889678 0.218321 -0.151336 1.546185 0.372496 -0.873622 10.982899 2.583515 -3.167411 21.173281 0.574616 -3.536515 -3.104165 1.332756 3.213687 4.339877 -3.898730 14.330734 -14.010757 -5.710520 44.898069 -43.133719 -35.623199 -8.109589 -3.366637 -29.751884 -4.164726 7.779876 0.199358 -8.111566 -18.582070 -0.747631 -46.470228 -43.517387 41.699625 -5.655829 -2.950504 19.522444 9.786861 -58.386869 -10.169527 -141.854056 77.132660 -135.471071 -0.826531 -20.677361 2.368195 -0.012634 -0.006753 -0.005735 -13.991537 -60.115039 8.984620 115.315821 80.012213 113.432722 -2.895580 -15.280268 -2.206281 0.014810 -0.000431 0.006724
-6.548662 126.519191 29.843731 176.735954 -20.114511 -2.309061 -0.929879 12.109984 2.836717 -0.089989 0.884775 0.218923 -0.152613 1.562355 0.371727 -0.876895 11.006539 2.576732 -3.158777 21.158725 0.568736 -3.525568 -3.119221 1.326341 3.242545 4.346622 -3.883763 14.311277 -14.032995 -5.730917 44.883325 -43.153464 -35.609996 -8.129772 -3.361600 -29.731185 -4.161530 7.767951 0.194043 -8.114502 -18.585425 -0.740092 -46.445738 -43.530796 41.703645 -5.629482 -2.961624 19.545244 9.769762 -58.338898 -10.138902 -141.870503 77.156469 -135.464907 -0.828868 -20.660593 2.348832 -0.031281 -0.007369 -0.014200 -13.959265 -60.070088 8.949404 115.271183 80.012621 113.396596 -2.919206 -15.275086 -2.214239 0.038485 0.001140 0.017473
-6.546667 126.524852 29.854799 176.743600 -20.186532 -2.313559 -0.934838 12.160415 2.836874 -0.089120 0.879869 0.220874 -0.155464 1.581297 0.370148 -0.877070 11.026224 2.573233 -3.152226 21.159708 0.543812 -3.494892 -3.149457 1.281423 3.272836 4.362097 -3.871431 14.300240 -14.043624 -5.775980 44.838891 -43.199296 -35.585620 -8.150877 -3.359021 -29.698573 -4.166471 7.769485 0.182351 -8.115776 -18.593297 -0.727245 -46.407390 -43.551557 41.700887 -5.617959 -2.976120 19.550295 9.742181 -58.266692 -10.097690 -141.929348 77.186442 -135.504526 -0.842150 -20.622316 2.318798 -0.034503 -0.002156 -0.015664 -13.913188 -59.998716 8.892104 115.454865 80.097795 113.568687 -2.829862 -15.269283 -2.196878 0.040817 -0.001726 0.018531
-6.544703 126.536692 29.858765 176.759040 -20.337626 -2.318883 -0.941891 12.277774 2.836666 -0.092703 0.876682 0.220238 -0.155810 1.578950 0.373132 -0.878065 11.078145 2.564895 -3.147899 21.152462 0.536634 -3.487758 -3.157968 1.271306 3.289097 4.363629 -3.863038 14.314200 -14.029223 -5.849850 44.766997 -43.280768 -35.554012 -8.175577 -3.355248 -29.641990 -4.193120 7.782532 0.159806 -8.098707 -18.613988 -0.700572 -46.357180 -43.580496 41.687869 -5.588695 -2.994711 19.564564 9.679867 -58.109076 -9.997316 -141.928097 77.212770 -135.493168 -0.903473 -20.601363 2.305690 -0.021229 -0.006150 -0.009638 -13.828030 -59.849346 8.775882 115.590546 80.174663 113.699909 -2.746597 -15.239883 -2.189771 0.042177 -0.013243 0.019145
-6.545790 126.548983 29.869074 176.769551 -20.494505 -2.305922 -0.955637 12.325456 2.816463 -0.093731 0.936510 0.219715 -0.157577 1.597243 0.373691 -0.882008 11.135932 2.557632 -3.135654 21.137805 0.518684 -3.480871 -3.171848 1.273072 3.313032 4.351213 -3.852789 14.307468 -14.026561 -5.901135 44.731454 -43.330881 -35.533016 -8.229341 -3.356135 -29.560012 -4.195082 7.766580 0.155625 -8.093229 -18.620803 -0.694746 -46.333140 -43.593714 41.685821 -5.500703 -3.029248 19.603683 9.635072 -57.948145 -9.928686 -142.017469 77.253606 -135.579949 -0.961750 -20.577840 2.292671 -0.021794 -0.012099 -0.009893 -13.693912 -59.696803 8.604563 115.730337 80.267262 113.838813 -2.651683 -15.203957 -2.177464 0.039076 -0.019072 0.017736
